<svg xmlns="http://www.w3.org/2000/svg" version="1.1" xmlns:xlink="http://www.w3.org/1999/xlink" xmlns:svgjs="http://svgjs.com/svgjs" width="1440" height="560" preserveAspectRatio="none" viewBox="0 0 1440 560" opacity="0.7"><g mask="url(&quot;#SvgjsMask3222&quot;)" fill="none"><rect width="1440" height="560" x="0" y="0" fill="url(#SvgjsLinearGradient3223)"></rect><path d="M 0,10 C 57.6,42.4 172.8,151.6 288,172 C 403.2,192.4 460.8,109.8 576,112 C 691.2,114.2 748.8,179.8 864,183 C 979.2,186.2 1036.8,126 1152,128 C 1267.2,130 1382.4,180 1440,193L1440 560L0 560z" fill="rgba(250, 168, 152, 1)"></path><path d="M 0,291 C 28.8,327.6 86.4,462.2 144,474 C 201.6,485.8 230.4,345.2 288,350 C 345.6,354.8 374.4,509.4 432,498 C 489.6,486.6 518.4,307.6 576,293 C 633.6,278.4 662.4,407.6 720,425 C 777.6,442.4 806.4,372.4 864,380 C 921.6,387.6 950.4,471.2 1008,463 C 1065.6,454.8 1094.4,345.6 1152,339 C 1209.6,332.4 1238.4,429.8 1296,430 C 1353.6,430.2 1411.2,358 1440,340L1440 560L0 560z" fill="rgba(255, 201, 181, 1)"></path></g><defs><mask id="SvgjsMask3222"><rect width="1440" height="560" fill="#ffffff"></rect></mask><linearGradient x1="15.28%" y1="-39.29%" x2="84.72%" y2="139.29%" gradientUnits="userSpaceOnUse" id="SvgjsLinearGradient3223"><stop stop-color="rgba(255, 129, 129, 1)" offset="0"></stop><stop stop-color="rgba(224, 136, 136, 1)" offset="0.98"></stop></linearGradient></defs></svg>